PathFileType	4	(X/Y/Z)	c:/Users/goper/Files/vsCode/490R/osim_files/A04/A04_Slow_01.trc
DataRate	CameraRate	NumFrames	NumMarkers	Units                	OrigDataRate	OrigDataStartFrame	OrigNumFrames
120.00	120.00	5	36	mm	120.0	975	1299
                Frame#	Time	LPSIS			LASIS			LTH1			LTH2			LTH3			LTH4			LLFE			LMFE			LSH1			LSH2			LSH3			LSH4			LLMAL			LMMAL			LCAL			LMTP5			LTOE			LMTP1			RPSIS			RASIS			RTH1			RTH2			RTH3			RTH4			RLFE			RMFE			RSH1			RSH2			RSH3			RSH4			RLMAL			RMMAL			RCAL			RMTP1			RTOE			RMTP5		
		X1	Y1	Z1	X2	Y2	Z2	X3	Y3	Z3	X4	Y4	Z4	X5	Y5	Z5	X6	Y6	Z6	X7	Y7	Z7	X8	Y8	Z8	X9	Y9	Z9	X10	Y10	Z10	X11	Y11	Z11	X12	Y12	Z12	X13	Y13	Z13	X14	Y14	Z14	X15	Y15	Z15	X16	Y16	Z16	X17	Y17	Z17	X18	Y18	Z18	X19	Y19	Z19	X20	Y20	Z20	X21	Y21	Z21	X22	Y22	Z22	X23	Y23	Z23	X24	Y24	Z24	X25	Y25	Z25	X26	Y26	Z26	X27	Y27	Z27	X28	Y28	Z28	X29	Y29	Z29	X30	Y30	Z30	X31	Y31	Z31	X32	Y32	Z32	X33	Y33	Z33	X34	Y34	Z34	X35	Y35	Z35	X36	Y36	Z36

975	8.11667	-2392.73853	1070.57959	399.11710	-2619.86816	1035.59326	470.57370	-2677.43970	703.15039	515.49426	-2698.85693	665.17371	511.50906	-2729.95923	730.95483	507.91629	-2747.10059	689.68298	507.08911	-2760.98828	579.62189	499.03455	-2760.88745	576.49609	358.72330	-2717.32666	481.59946	506.97153	-2718.67871	438.23239	504.45438	-2776.81982	477.20148	488.92963	-2768.59058	434.14447	487.73557	-2662.22754	159.98213	471.68942	-2679.08472	157.81308	385.67285	-2589.18408	132.54703	421.38474	-2791.18750	78.56143	497.83099	-2836.04712	82.45868	432.98026	-2811.39453	70.41493	390.09171	-2385.41260	1059.64917	292.91458	-2606.82983	1034.33093	184.47142	-2469.04321	734.61450	166.67505	-2472.81030	692.12708	169.60275	-2531.19653	732.69336	157.77248	-2526.48682	685.80212	164.89803	-2510.99512	551.96411	196.85672	-2522.83228	550.38727	311.34512	-2431.52734	344.41296	211.81308	-2432.90576	297.23578	220.90614	-2492.33374	338.26511	204.23361	-2482.52832	291.71796	209.96350	-2441.05078	102.78290	221.30421	-2475.07495	116.35624	352.26520	-2376.38892	62.45081	302.86304	0.00000	0.00000	0.00000	-2622.88818	82.83641	279.89056	-2586.16895	55.23798	208.88290
976	8.12500	-2399.91040	1070.28381	399.66953	-2627.31445	1035.01831	470.86700	-2681.90332	702.24811	512.52405	-2704.97827	663.93140	510.99973	-2735.30566	730.00244	507.43604	-2752.72729	688.78400	506.59818	-2767.65942	578.69336	498.68341	-2767.51147	575.36719	358.26602	-2727.88574	478.94189	506.28244	-2731.09692	435.71411	503.75665	-2787.61523	477.02277	488.44513	-2781.14380	433.62149	487.37646	-2686.26807	155.32372	470.64056	-2703.34692	153.94339	384.74451	-2614.37085	125.08986	419.90915	-2817.99512	79.81674	497.39917	-2863.44482	84.99728	432.57581	-2840.03638	72.25172	389.58545	-2392.86353	1059.38220	293.38364	-2614.02759	1033.73914	184.80702	-2473.63989	734.66931	166.99582	-2476.82495	692.21594	169.97566	-2536.01538	732.56873	158.17584	-2530.14722	685.63739	165.23230	-2513.43433	551.84467	197.19470	-2525.27588	550.09344	311.74966	-2432.78784	344.64075	212.13515	-2433.91162	297.46826	221.19533	-2493.23169	338.30118	204.57790	-2483.63281	291.75586	210.15619	-2441.36865	103.01451	221.42039	-2475.39575	116.34687	352.32098	-2376.53760	62.67282	302.95877	0.00000	0.00000	0.00000	-2622.74341	82.16139	279.84933	-2586.24902	55.12096	208.90887
977	8.13333	-2407.51172	1069.78210	400.38098	-2634.88501	1034.39392	471.21005	-2687.19434	700.53668	511.96567	-2710.05786	662.49103	510.32123	-2740.34106	728.57922	507.10660	-2758.06177	687.48279	506.23602	-2773.79980	577.45526	498.29572	-2774.81519	574.25848	357.78729	-2738.05566	476.08679	505.56265	-2743.28223	433.09308	503.10461	-2797.92627	476.69110	488.07025	-2793.31274	433.10052	486.80142	-2709.87402	151.08008	469.39761	-2728.13745	150.48187	383.69556	-2640.26538	117.71060	418.48721	-2845.18018	80.53863	496.59296	-2890.32202	88.16203	432.21271	-2867.51855	74.54029	389.07904	-2400.19556	1058.88306	294.12354	-2621.24023	1033.18494	185.13997	-2478.07861	734.96283	167.25208	-2480.78833	692.73785	170.08543	-2539.80444	732.25226	158.22542	-2534.09277	685.33868	165.62447	-2515.53003	551.85767	197.42926	-2528.16968	549.80286	312.15216	-2434.23682	344.91470	212.45689	-2435.18140	297.76144	221.47322	-2494.71533	338.38882	204.86107	-2484.85425	291.90610	210.45282	-2441.72314	103.27725	221.55090	-2475.84155	116.33471	352.38867	-2376.69678	62.96221	303.01099	-2602.13794	59.68795	327.91876	-2622.95654	81.81004	279.93323	-2586.34668	55.03244	208.95383
978	8.14167	-2414.96143	1069.26611	401.01895	-2642.38989	1033.48572	471.49597	-2692.30078	698.01453	512.20288	-2715.35767	660.45129	509.85623	-2745.36011	726.87537	506.92508	-2763.02954	685.74127	505.95337	-2779.62329	575.93536	497.92078	-2780.78809	572.85425	357.53467	-2747.93408	473.03714	504.93076	-2754.95801	430.39297	502.38779	-2807.59863	475.80640	487.63937	-2805.18091	432.57135	486.46643	-2734.42920	147.10004	468.24948	-2752.18164	147.60480	382.61157	-2664.86157	111.33060	416.86356	-2871.37207	82.25695	495.96405	-2916.40503	91.82077	431.80661	-2894.28809	77.32563	388.60074	-2407.24243	1058.57776	294.65253	-2628.56104	1032.46143	185.43987	-2482.57715	735.20972	167.48425	-2484.94824	692.92474	170.37946	-2543.85693	731.92535	158.56081	-2538.22144	685.13483	165.92525	-2518.82324	551.55591	197.78636	-2531.43433	549.68024	312.33426	-2435.73950	345.33298	212.79590	-2436.59448	298.10278	221.72353	-2496.24634	338.37668	205.13870	-2486.15991	291.96829	210.67821	-2442.11963	103.51925	221.68698	-2476.31909	116.37989	352.43997	-2376.88892	63.32891	303.04501	-2602.24146	59.34783	327.96381	-2622.96973	81.47670	279.88992	-2586.45215	54.92545	208.97794
979	8.15000	-2422.37866	1068.65906	401.67438	-2649.94995	1032.45837	471.81064	-2696.80737	696.21448	510.73059	-2719.84351	658.34979	509.12720	-2749.96411	724.73199	506.78860	-2767.82300	683.64478	505.62738	-2784.73682	573.96808	497.38239	-2786.84009	571.18188	357.17468	-2757.30688	469.87891	504.11917	-2765.89111	427.70953	501.58560	-2817.29761	475.41977	487.30774	-2816.37109	431.79938	486.04846	-2757.41846	143.75356	467.01645	-2775.55786	145.20087	381.37625	-2689.81714	105.23804	414.96478	-2897.22754	84.97523	495.67087	-2941.80225	95.98973	431.58292	-2920.32959	80.69406	388.18835	-2414.54639	1057.97559	295.49622	-2636.07837	1031.87292	185.78139	-2487.05176	735.40820	167.69942	-2489.08350	693.04590	170.62894	-2548.72632	731.68500	158.74823	-2542.47266	684.91010	166.22673	-2521.74463	551.48419	198.08617	-2534.65381	549.45709	312.42343	-2438.01318	345.45941	212.94801	-2437.85156	298.47162	221.87219	-2497.86279	338.43152	205.35172	-2487.52075	292.00195	210.85341	-2442.55566	103.87447	221.79160	-2476.65820	116.49951	352.46432	-2376.99707	63.79120	303.03073	-2602.40308	59.04369	328.02069	-2623.27222	81.32188	279.96490	-2586.64819	54.89685	208.94199
